<svg width="500.001" xmlns="http://www.w3.org/2000/svg" height="500.001" fill="none">
  <g class="fills">
    <rect rx="0" ry="0" width="500.001" height="500.001" class="frame-background"/>
  </g>
  <g style="fill:#000" class="frame-children">
    <g style="fill:#000">
      <path d="M500.001 250.001C500.001 112.021 387.98 0 250.001 0 112.021 0 0 112.021 0 250.001c0 137.979 112.021 250 250.001 250 137.979 0 250-112.021 250-250Z" style="fill:#212529;fill-opacity:1" class="fills"/>
      <path d="M222.366 18.11C110.631 33.32 16.665 126.967 16.665 242.858c0 25.896 1.225 50.83 9.331 75.699 2.131 6.548 3.921 18.757 9.838 22.991 6.575 4.705 22.41 1.693 30.199 1.693H355.66c32.969 0 71.053 5.36 103.499-.243 11.339-1.959 15.302-28.146 17.658-37.605 10.402-41.807 8.172-87.563-5.417-128.357C437.188 74.319 331.364 3.273 222.366 18.11ZM38.058 348.178c2.017 6.999 5.462 17.347 12.06 21.347 5.841 3.542 15.935 1.69 22.498 1.69h306.082c29.303 0 72.344 11.456 82.279-23.037H38.058Zm18.101 32.911c15.478 27.165 51.391 18.103 78.989 18.103h223.803c28.351 0 68.048 9.761 83.925-18.103H56.159Zm27.977 32.913c14.482 20.488 46.602 13.164 69.115 13.164h189.243c23.04 0 57.611 7.769 72.408-13.164H84.136Zm41.138 32.912v1.646c17.284 10.42 39.662 6.581 59.242 6.581h128.357c19.58 0 43.913 4.463 60.888-6.581-19.243-8.075-53.106-1.646-74.052-1.646H125.274Zm80.636 31.267v1.644a238.054 238.054 0 0 0 87.216 0l-27.975-1.644H205.91Z" style="fill:#f8f9fa;fill-opacity:1" class="fills"/>
    </g>
    <g style="fill:#000">
      <path d="M194.566 68.121c1.805-3.624 4.749-3.306 10.236-6.536 13.105-7.713 35.966-20.323 53.672-29.96 4.897-2.665 9.022-7.751 13.192-7.146 4.169.605 6.977 4.807 11.823 10.775 24.66 32.703 50.081 61.856 78.803 101.277 3.526 4.842 9.52 9.956 10.738 15.016 1.216 5.061-2.295 10.332-3.435 15.346-11.209 49.286-22.022 89.031-32.679 125.067 21.918-10.369 41.568-18.773 55.061-21.842 5.936-1.349 12.2-2.457 13.902-.662 1.703 1.794-2.469 7.613-3.69 11.427-11.656 36.404-22.981 73.991-48.13 132.289-11.408 26.446-10.113 43.531-17.59 54.884-14.508 22.029-56.39 26.928-81.462 25.566-30.276-1.643-83.916-10.037-98.095-25.988-28.766-32.364-32.292-81.106-58.376-162.329 0 0-8.373-19.108-5.278-28.288 6.826-20.239 27.271-81.85 37.375-108.513 2.28-6.017 2.257-11.161 4.984-11.835 2.728-.674 7.135 4.267 11.381 7.79 11.961 9.927 27.844 26.935 50.465 48.723-1.331-41.559-4.428-99.782-4.141-128.552.085-8.386-.67-12.668 1.244-16.509Z" style="fill-rule:evenodd;clip-rule:evenodd;stroke-linejoin:round;stroke-miterlimit:2;fill:#212529;fill-opacity:1" class="fills"/>
      <path d="M286.774 483.634c7.317-1.173 9.067-7.662 12.073-13.662l18.222-36.433c18.394-36.785 37.171-73.412 55.574-110.21 7.725-15.461 16.81-30.474 23.461-46.452l-44.643 16.395-15.624 6.967-4.42 13.982-9.911 37.343-23.689 89.261-11.043 42.809Z" style="fill-rule:evenodd;clip-rule:evenodd;stroke-linejoin:round;stroke-miterlimit:2;fill:#c5f82a;fill-opacity:1" class="fills"/>
      <path d="m388.417 301.469-64.913 129.337-24.372 50.095c6.743-.995 20.964-4.103 25.446-9.562 7.808-9.54 11.278-28.053 15.599-39.622 10.558-28.306 21.563-56.442 32.224-84.707 3.898-10.335 7.752-20.701 11.824-30.968 1.669-4.204 5.12-10.067 4.192-14.573Z" style="fill-rule:evenodd;clip-rule:evenodd;fill:#c5f82a;fill-opacity:1" class="fills"/>
      <path d="M362.06 176.687 224.49 482.723s30.783 4.339 40.087 4.552c5.355.124 15.734-3.267 15.734-3.267l6.131-19.501 14.002-52.83 44.443-168.501 12.756-46.452 4.417-20.037ZM201.558 70.826v.911l63.775 29.857 97.483 45.741-26.421-34.611-40.633-51.917-16.398-20.949-7.689-7.443-19.097 9.401-51.02 29.01Zm-1.822 3.541 3.643 143.91 46.465-18.863 115.707-47.626-35.533-17.18-62.863-29.508-45.554-21.497-21.865-9.236Zm20.954 407.445 33.428-74.686 70.307-156.661 25.008-55.561 16.118-37.343-46.467 18.74-75.618 31.109-29.153 12.096-10.384 5.815.28 19.679.958 40.987 2.768 139.354.911 37.346.938 15.092 10.906 4.033Zm-78.339-311.5c10.062 77.895 30.631 154.819 43.805 232.259 3.209 18.859 6.926 37.712 10.677 56.471 1.396 6.983.932 16.109 8.382 19.127l-4.52-183.985-.947-48.273-.936-21.857-15.464-15.487-40.997-38.255Zm-6.519 1.821a10888.432 10888.432 0 0 1-24.295 73.776c-3.162 9.485-10.515 22.752-10.072 32.79.54 12.225 11.053 27.958 15.89 39.165 12.042 27.903 23.935 55.871 35.924 83.796 7.428 17.302 14.865 34.6 22.256 51.917 4.341 10.168 6.484 18.863 18.607 20.949l-13.312-69.223-27.867-146.643-11.3-60.112-5.831-26.415Zm-30.193 135.712c8.737 37.751 22.439 74.831 33.324 112.031 6.395 21.856 11.162 41.145 35.918 48.274-12.54-36.828-30.788-72.658-46.209-108.388-6.858-15.89-12.182-38.49-23.033-51.917Z" style="fill:#c5f82a;fill-opacity:1" class="fills"/>
    </g>
  </g>
</svg>
