<svg width="294.657" xmlns="http://www.w3.org/2000/svg" height="454.864" fill="none"><g style="fill: rgb(0, 0, 0);"><path d="M185.328 451.219c7.317-1.173 9.067-7.662 12.073-13.662l18.221-36.433c18.395-36.785 37.172-73.412 55.575-110.21 7.725-15.461 16.81-30.474 23.46-46.452l-44.642 16.395-15.625 6.967-4.419 13.982-9.911 37.344-23.689 89.26-11.043 42.809Z" style="fill-rule: evenodd; clip-rule: evenodd; stroke-linejoin: round; stroke-miterlimit: 2; fill: rgb(0, 0, 0); fill-opacity: 1;" class="fills"/><path d="m286.97 269.054-64.913 129.337-24.371 50.096c6.742-.996 20.963-4.104 25.446-9.563 7.807-9.539 11.278-28.052 15.599-39.622 10.558-28.305 21.563-56.442 32.224-84.706 3.898-10.336 7.751-20.702 11.824-30.968 1.669-4.204 5.12-10.068 4.191-14.574Z" style="fill-rule: evenodd; clip-rule: evenodd; fill: rgb(0, 0, 0); fill-opacity: 1;" class="fills"/><path d="m260.614 144.273-137.57 306.035s30.782 4.339 40.087 4.553c5.355.124 15.733-3.268 15.733-3.268l6.132-19.501 14.002-52.83 44.443-168.5 12.755-46.452 4.418-20.037ZM100.111 38.411v.911l63.776 29.857 97.483 45.741-26.421-34.611-40.633-51.917-16.398-20.949L170.229 0l-19.097 9.401-51.021 29.01ZM98.29 41.953l3.643 143.909 46.464-18.863 115.707-47.626-35.532-17.18-62.863-29.508-45.554-21.497-21.865-9.235ZM119.244 449.397l33.427-74.685 70.308-156.662 25.007-55.56 16.118-37.344-46.466 18.74-75.618 31.109-29.154 12.096-10.383 5.815.28 19.679.957 40.987 2.769 139.354.911 37.346.937 15.092 10.907 4.033ZM40.905 137.897c10.062 77.895 30.631 154.819 43.805 232.259 3.208 18.859 6.925 37.712 10.676 56.471 1.396 6.983.933 16.109 8.383 19.127l-4.52-183.984-.947-48.274-.936-21.856-15.464-15.488-40.997-38.255ZM34.386 139.718a10832.815 10832.815 0 0 1-24.296 73.776C6.928 222.98-.424 236.247.019 246.284c.54 12.225 11.053 27.959 15.889 39.165 12.043 27.903 23.936 55.871 35.925 83.796 7.428 17.302 14.865 34.601 22.256 51.917 4.34 10.168 6.484 18.863 18.606 20.949l-13.312-69.223-27.866-146.642-11.3-60.113-5.831-26.415ZM4.193 275.43c8.736 37.752 22.439 74.831 33.324 112.031 6.394 21.857 11.162 41.146 35.918 48.274-12.54-36.828-30.788-72.657-46.209-108.388-6.858-15.89-12.182-38.49-23.033-51.917Z" style="fill: rgb(0, 0, 0); fill-opacity: 1;" class="fills"/></g></svg>